<svg width="65" height="37" viewBox="0 0 65 37" fill="none" xmlns="http://www.w3.org/2000/svg">
<path d="M63.6472 24.9251C63.6119 18.5822 54.3761 11.7706 45.7263 11.628C36.9843 11.4855 30.7311 18.1779 25.0599 24.1107C24.3387 24.8606 23.6332 25.6008 22.9317 26.3116C18.6675 30.6216 14.6052 33.9219 9.88633 32.7697C7.86202 32.2776 5.95529 31.0239 4.4248 29.3776C5.78284 30.3521 8.13049 29.1745 9.10835 28.6843C11.9146 27.2802 14.2799 24.7708 16.555 21.8239C17.5877 20.4921 18.6009 19.0704 19.6336 17.6194C22.8278 13.1298 26.1788 8.38043 30.6644 5.23241C36.5453 1.10992 46.7022 -1.88968 54.6838 2.69955C61.8874 6.84548 66.232 16.5512 63.6433 24.9251H63.6472Z" fill="#509C5D"/>
<path d="M19.6358 17.6175C18.603 19.0684 17.5899 20.4882 16.5572 21.822C13.945 20.3866 11.468 19.7461 9.11051 20.5585C8.18556 20.8768 4.66996 22.0876 3.69601 25.0227C3.31584 26.1691 3.27665 27.7196 3.84691 28.7195C3.46674 28.3445 0.345023 25.1731 0.928997 20.5585C1.41107 16.7563 4.17809 13.7977 7.37623 12.706C11.7306 11.2199 16.9217 13.1786 19.6377 17.6194L19.6358 17.6175Z" fill="#FBC506"/>
<path d="M27.1626 27.4384C27.8132 26.3702 33.7392 16.9691 44.7151 16.0649C46.8413 15.8892 53.9019 15.6451 59.7378 20.4667C61.6425 22.0407 62.8849 23.7182 63.6473 24.9251C61.7582 24.5111 59.0186 24.1225 55.7734 24.4447C50.2374 24.9954 45.7381 27.3642 45.7969 27.5263C45.8302 27.622 47.4155 27.0205 49.5535 26.5108C52.7203 25.7551 57.2666 25.1594 63.2436 25.9152C62.3617 27.4677 58.268 34.2871 50.3628 36.0056C45.2109 37.1266 40.8703 35.5506 38.0798 34.539C32.6182 32.5569 29.0223 29.3561 27.1626 27.4384Z" fill="#509C5D"/>
</svg>
